<svg fill="none" height="26" viewBox="0 0 109 26" width="109" xmlns="http://www.w3.org/2000/svg" xmlns:xlink="http://www.w3.org/1999/xlink"><clipPath id="a"><path d="m0 0h109v10.667h-109z"/></clipPath><g fill="#646464"><g clip-path="url(#a)"><path d="m0 5.25272c0-1.50356.502209-2.75479 1.50651-3.75406 1.01385-.999026 2.30518-1.49866 3.87385-1.49866.71739 0 1.41565.123713 2.09478.371139.67914.237863 1.26264.59478 1.75038 1.070501l-1.16209 1.88415c-.34441-.30457-.75087-.55199-1.2196-.74228-.45918-.19986-.90866-.29978-1.34871-.29978-.95648 0-1.67865.28543-2.16651.85643-.48787.56143-.73174 1.24657-.73174 2.05542 0 .82787.24866 1.54636.74608 2.15536.50699.609 1.22438.91357 2.15217.91357.97561 0 1.88427-.41872 2.7261-1.25614l1.29133 1.82701c-1.1095 1.14186-2.48689 1.71282-4.13207 1.71282-1.62605 0-2.93172-.4948-3.91689-1.4844-.975726-.99903-1.46359-2.26939-1.46359-3.81108z"/><path d="m9.6684 10.3772 3.4865-10.205813h2.6399l3.4866 10.205813h-2.5827l-.6313-2.14116h-3.1995l-.617 2.14116zm3.7878-4.13945h2.023l-.5739-1.98407-.4161-1.75565h-.0287c-.153.74228-.2917 1.32749-.416 1.75565z"/><path d="m19.5458 5.25272c0-1.50356.5022-2.75479 1.5065-3.75406 1.0139-.999026 2.3052-1.49866 3.8739-1.49866.7174 0 1.4156.123713 2.0948.371139.6791.237863 1.2625.59478 1.7503 1.070501l-1.1621 1.88415c-.3444-.30457-.7508-.55199-1.2196-.74228-.4591-.19986-.9086-.29978-1.3487-.29978-.9564 0-1.6786.28543-2.1665.85643-.4877.56143-.7317 1.24657-.7317 2.05542 0 .82787.2488 1.54636.7461 2.15536.507.609 1.2244.91357 2.1521.91357.9758 0 1.8844-.41872 2.7261-1.25614l1.2912 1.82701c-1.1095 1.14186-2.4868 1.71282-4.132 1.71282-1.6261 0-2.9317-.4948-3.9169-1.4844-.9756-.99903-1.4635-2.26939-1.4635-3.81108z"/><path d="m32.5429 10.3772v-8.06468h-3.1135v-2.141133h8.7378v2.141133h-3.1134v8.06478h-2.5109z"/><path d="m39.2979 6.62323v-6.451843h2.5109v6.451843c0 .52342.1578.92779.4734 1.21322.3253.28544.7604.42828 1.3057.42828.5452 0 .9756-.14272 1.2913-.42828.3252-.28543.4877-.68992.4877-1.21322v-6.451843h2.5108v6.451843c0 1.16087-.3921 2.10778-1.1764 2.8405-.7843.72317-1.8173 1.08487-3.0991 1.08487-1.2913 0-2.3339-.3616-3.1278-1.08487-.7843-.73284-1.1765-1.67963-1.1765-2.8405z"/><path d="m49.2183 9.09249 1.3199-1.89849c.3252.28544.7126.53286 1.1622.74228.4495.20942.8847.314 1.3055.314.3349 0 .5931-.06657.7749-.19985.1913-.13328.2869-.30456.2869-.51386 0-.21886-.1147-.41871-.3444-.59944-.2199-.19029-.4973-.34735-.8321-.47106-.3348-.12372-.6983-.28078-1.0904-.47107-.3922-.19985-.7557-.40915-1.0904-.62801-.3348-.21886-.6169-.51864-.8466-.89922-.22-.39014-.3299-.83742-.3299-1.34171 0-.93257.3442-1.68429 1.0329-2.255286.6983-.580557 1.5926-.870774 2.6831-.870774 1.2721 0 2.3435.385362 3.2139 1.15621l-1.0617 2.04121c-.2966-.25699-.6505-.47107-1.0618-.64236-.4112-.17128-.813-.25686-1.2051-.25686-.3636 0-.6361.06657-.8179.19985s-.2726.30922-.2726.52808.1099.41871.33.59956c.2296.18085.5117.33301.8465.45672.3348.11415.6983.26643 1.0904.45672.3922.18085.7556.38058 1.0905.59956.3347.2093.6121.50908.8321.89922.2296.38058.3443.82308.3443 1.3275 0 .904-.3251 1.6605-.9756 2.2695-.6409.60899-1.5304.91359-2.6687.91359-.6886 0-1.3629-.1237-2.0229-.3712-.6505-.24751-1.2149-.60909-1.693-1.08481z"/><path d="m70.9801 10.3772v-10.205813h2.511v10.205813z"/><path d="m74.943 9.09249 1.32-1.89849c.3253.28544.7126.53286 1.1622.74228.4495.20942.8847.314 1.3055.314.3349 0 .5931-.06657.7748-.19985.1914-.13328.287-.30456.287-.51386 0-.21886-.1147-.41871-.3444-.59944-.2199-.19029-.4973-.34735-.8321-.47106-.3347-.12372-.6983-.28078-1.0904-.47107-.3922-.19985-.7556-.40915-1.0905-.62801-.3347-.21886-.6168-.51864-.8465-.89922-.2199-.39014-.3299-.83742-.3299-1.34171 0-.93257.3443-1.68429 1.033-2.255286.6982-.580557 1.5925-.870774 2.683-.870774 1.2721 0 2.3435.385362 3.2139 1.15621l-1.0618 2.04121c-.2965-.25699-.6503-.47107-1.0617-.64236-.4112-.17128-.813-.25686-1.2053-.25686-.3634 0-.6359.06657-.8178.19985-.1817.13328-.2725.30922-.2725.52808s.11.41871.33.59956c.2296.18085.5117.33301.8465.45672.3348.11415.6983.26643 1.0904.45672.3921.18085.7557.38058 1.0904.59956.3348.2093.6122.50908.8323.89922.2295.38058.3442.82308.3442 1.3275 0 .904-.3251 1.6605-.9756 2.2695-.6408.60899-1.5304.91359-2.6687.91359-.6887 0-1.363-.1237-2.0229-.3712-.6505-.24751-1.2148-.60909-1.6931-1.08481z"/><path d="m83.8988 10.3772v-10.205813h2.5108v10.205813z"/><path d="m88.0049 5.20993c0-1.48443.5022-2.72157 1.5065-3.71115 1.0043-.999146 2.2909-1.49878 3.8595-1.49878 1.5687 0 2.8552.499634 3.8595 1.49878 1.0043.98971 1.5065 2.22672 1.5065 3.71115 0 1.52257-.5022 2.79293-1.5065 3.81108-1.0043 1.01819-2.2908 1.52739-3.8595 1.52739-1.5686 0-2.8552-.5091-3.8595-1.52739-1.0043-1.01828-1.5065-2.28851-1.5065-3.81108zm2.5969 0c0 .87543.2583 1.60349.7747 2.18392.5262.58044 1.191.87066 1.9944.87066.8035 0 1.4635-.29022 1.98-.87066.526-.58043.7892-1.30849.7892-2.18392 0-.83742-.2632-1.53201-.7892-2.084-.5165-.56143-1.1765-.8422-1.98-.8422-.8034 0-1.4682.28077-1.9944.8422-.5164.55199-.7747 1.24658-.7747 2.084z"/><path d="m100.334 10.3772v-10.205813h2.54l2.84 4.767433c.115.19985.244.44728.388.74228.143.28543.258.52342.344.71371l.129.28543h.029c-.077-.73271-.115-1.31315-.115-1.74142v-4.767433h2.511v10.205813h-2.525l-2.855-4.75324c-.115-.19985-.244-.4425-.388-.72793-.143-.295-.258-.53765-.344-.72794l-.129-.28543h-.029c.077.73271.115 1.31315.115 1.74142v4.75322h-2.511z"/><path d="m63.4526 2.0684-.5902-1.897013h-2.7261l.6747 1.897013z"/><path d="m67.1846.206787h2.7244l-3.6325 10.341513h-2.3657z"/></g><path d="m5.55 19.44c0-1.0267.33-1.88.99-2.56.66667-.6867 1.51333-1.03 2.54-1.03 1.06 0 1.9067.3033 2.54.91l-.37.51c-.2733-.24-.6033-.4267-.99-.56-.38667-.14-.77333-.21-1.16-.21-.84 0-1.52333.28-2.05.84-.52.5533-.78 1.25-.78 2.09 0 .8533.26333 1.5733.79 2.16s1.21667.88 2.07.88c.88 0 1.6367-.31 2.27-.93l.4.49c-.74.7267-1.6367 1.09-2.69 1.09-1.05333 0-1.91-.35-2.57-1.05-.66-.7067-.99-1.5833-.99-2.63zm7.3889 3.56v-5.03h1.82c.52 0 .9267.1133 1.22.34.2933.22.44.5333.44.94 0 .5533-.2533.9233-.76 1.11v.02c.32.0667.57.21.75.43s.27.48.27.78c0 .4333-.1633.7767-.49 1.03-.32.2533-.7633.38-1.33.38zm.68-2.85h1.07c.3333 0 .5867-.0733.76-.22.18-.1533.27-.3667.27-.64 0-.5333-.3567-.8-1.07-.8h-1.03zm0 2.32h1.15c.4067 0 .71-.0767.91-.23.2-.16.3-.38.3-.66 0-.2933-.1067-.5167-.32-.67-.2067-.16-.5067-.24-.9-.24h-1.14zm4.0093-2.01c0-.74.2567-1.36.77-1.86s1.14-.75 1.88-.75 1.3667.25 1.88.75c.52.5.78 1.12.78 1.86 0 .7533-.26 1.3867-.78 1.9-.5133.5067-1.14.76-1.88.76s-1.3667-.2533-1.88-.76c-.5133-.5133-.77-1.1467-.77-1.9zm.7 0c0 .5867.1867 1.0733.56 1.46.38.3867.8433.58 1.39.58s1.01-.1933 1.39-.58.57-.8733.57-1.46c0-.5667-.19-1.04-.57-1.42-.38-.3867-.8433-.58-1.39-.58s-1.01.1933-1.39.58c-.3733.38-.56.8533-.56 1.42zm5.6602-.31c0-.9067.1467-1.6367.44-2.19.2934-.5533.8367-1.01 1.63-1.37l1.86-.87.25.57-1.94.89c-.5533.26-.9533.5733-1.2.94-.24.3667-.3766.8267-.41 1.38h.02c.3934-.7067 1.02-1.06 1.88-1.06.6267 0 1.1367.21 1.53.63.4.4133.6.9767.6 1.69 0 .6933-.2133 1.26-.64 1.7-.4266.44-.9766.66-1.65.66-.7933 0-1.3866-.27-1.78-.81-.3933-.54-.59-1.26-.59-2.16zm.74.6c0 .54.1534.97.46 1.29.3067.32.69.48 1.15.48s.8434-.1567 1.15-.47c.3067-.32.46-.7467.46-1.28 0-.54-.1533-.9667-.46-1.28-.3-.32-.67-.48-1.11-.48-.4866 0-.8833.1667-1.19.5-.3066.3333-.46.7467-.46 1.24zm4.9018-.29c0-.74.2566-1.36.77-1.86.5133-.5 1.14-.75 1.88-.75s1.3666.25 1.88.75c.52.5.78 1.12.78 1.86 0 .7533-.26 1.3867-.78 1.9-.5134.5067-1.14.76-1.88.76s-1.3667-.2533-1.88-.76c-.5134-.5133-.77-1.1467-.77-1.9zm.7 0c0 .5867.1866 1.0733.56 1.46.38.3867.8433.58 1.39.58.5466 0 1.01-.1933 1.39-.58s.57-.8733.57-1.46c0-.5667-.19-1.04-.57-1.42-.38-.3867-.8434-.58-1.39-.58-.5467 0-1.01.1933-1.39.58-.3734.38-.56.8533-.56 1.42zm6.3935 1.96h2.58v-3.87h-1.76v.3c0 1.5533-.2734 2.7433-.82 3.57zm-1.35 0h.62c.5866-.7667.88-1.9767.88-3.63v-.82h3.11v4.45h.71v1.78h-.65v-1.2h-4.02v1.2h-.65zm6.4226.58v-5.03h.68v2.15h2.94v-2.15h.68v5.03h-.68v-2.28h-2.94v2.28zm10.288 0v-5.03h.68v5.03zm-4.37 0v-5.03h.68v1.92h1.08c.5067 0 .9267.1233 1.26.37s.5.6467.5 1.2c0 .4733-.15.85-.45 1.13-.3.2733-.7433.41-1.33.41zm.68-.54h1c.76 0 1.14-.3367 1.14-1.01 0-.32-.0933-.57-.28-.75s-.47-.27-.85-.27h-1.01zm8.1499-1.97c0-.7667.2534-1.3967.76-1.89.5067-.5 1.1334-.75 1.88-.75.3467 0 .6867.0633 1.02.19.3334.12.6067.2967.82.53l-.35.51c-.18-.1867-.4033-.3367-.67-.45-.26-.1133-.5266-.17-.8-.17-.56 0-1.0266.19-1.4.57-.3733.38-.56.8667-.56 1.46 0 .5867.1867 1.07.56 1.45.38.3733.8534.56 1.42.56.2934 0 .5867-.06.88-.18.2934-.1267.5367-.2967.73-.51l.31.51c-.22.2467-.5066.4433-.86.59-.3466.14-.7133.21-1.1.21-.7533 0-1.3833-.2433-1.89-.73-.5-.4933-.75-1.1267-.75-1.9zm5.3028-.03c0-.74.2566-1.36.77-1.86.5133-.5 1.14-.75 1.88-.75s1.3666.25 1.88.75c.52.5.78 1.12.78 1.86 0 .7533-.26 1.3867-.78 1.9-.5134.5067-1.14.76-1.88.76s-1.3667-.2533-1.88-.76c-.5134-.5133-.77-1.1467-.77-1.9zm.7 0c0 .5867.1866 1.0733.56 1.46.38.3867.8433.58 1.39.58.5466 0 1.01-.1933 1.39-.58s.57-.8733.57-1.46c0-.5667-.19-1.04-.57-1.42-.38-.3867-.8434-.58-1.39-.58-.5467 0-1.01.1933-1.39.58-.3734.38-.56.8533-.56 1.42zm5.2432 1.93.36-.47c.3934.4133.8434.62 1.35.62.3334 0 .6167-.0833.85-.25.24-.1733.36-.4167.36-.73 0-.5933-.4066-.89-1.22-.89h-.61v-.54h.53c.3534 0 .6267-.07.82-.21.2-.1467.3-.36.3-.64s-.0933-.49-.28-.63c-.1866-.1467-.44-.22-.76-.22-.44 0-.85.15-1.23.45l-.3-.48c.44-.3667.9834-.55 1.63-.55.4867 0 .88.1167 1.18.35.3067.2333.46.5667.46 1 0 .5667-.2566.95-.77 1.15v.02c.2867.0733.5167.2133.69.42.1734.2067.26.47.26.79 0 .4867-.1833.8667-.55 1.14-.36.2667-.8.4-1.32.4-.6666 0-1.25-.2433-1.75-.73zm5.5057.03h2.58v-3.87h-1.76v.3c0 1.5533-.2733 2.7433-.82 3.57zm-1.35 0h.62c.5867-.7667.88-1.9767.88-3.63v-.82h3.11v4.45h.71v1.78h-.65v-1.2h-4.02v1.2h-.65zm5.9827-.77c0-1.1667 1.02-1.75 3.06-1.75h.3v-.14c0-.8667-.4133-1.3-1.24-1.3-.5133 0-.99.16-1.43.48l-.31-.52c.2-.1733.4633-.31.79-.41.3267-.1067.6567-.16.99-.16.6067 0 1.07.1667 1.39.5.3267.3267.49.8033.49 1.43v3.22h-.65v-.59l.03-.42h-.02c-.14.32-.3633.59-.67.81-.3.2133-.6433.32-1.03.32-.46 0-.86-.13-1.2-.39-.3333-.26-.5-.62-.5-1.08zm.69-.06c0 .2533.1.4767.3.67s.4767.29.83.29c.46 0 .83-.1933 1.11-.58.2867-.3867.43-.82.43-1.3v-.23h-.29c-.2133 0-.4.0033-.56.01-.1533.0067-.3567.0333-.61.08-.2467.04-.45.0967-.61.17s-.3.1867-.42.34-.18.3367-.18.55zm4.916 1.41v-5.03h1.82c.52 0 .9267.1133 1.22.34.2933.22.44.5333.44.94 0 .5533-.2533.9233-.76 1.11v.02c.32.0667.57.21.75.43s.27.48.27.78c0 .4333-.1633.7767-.49 1.03-.32.2533-.7633.38-1.33.38zm.68-2.85h1.07c.3333 0 .5867-.0733.76-.22.18-.1533.27-.3667.27-.64 0-.5333-.3567-.8-1.07-.8h-1.03zm0 2.32h1.15c.4067 0 .71-.0767.91-.23.2-.16.3-.38.3-.66 0-.2933-.1067-.5167-.32-.67-.2067-.16-.5067-.24-.9-.24h-1.14zm3.9093-.82c0-1.1667 1.02-1.75 3.06-1.75h.3v-.14c0-.8667-.4133-1.3-1.24-1.3-.5133 0-.99.16-1.43.48l-.31-.52c.2-.1733.4633-.31.79-.41.3267-.1067.6567-.16.99-.16.6067 0 1.07.1667 1.39.5.3267.3267.49.8033.49 1.43v3.22h-.65v-.59l.03-.42h-.02c-.14.32-.3633.59-.67.81-.3.2133-.6433.32-1.03.32-.46 0-.86-.13-1.2-.39-.3333-.26-.5-.62-.5-1.08zm.69-.06c0 .2533.1.4767.3.67s.4767.29.83.29c.46 0 .83-.1933 1.11-.58.2867-.3867.43-.82.43-1.3v-.23h-.29c-.2133 0-.4.0033-.56.01-.1533.0067-.3567.0333-.61.08-.2467.04-.45.0967-.61.17s-.3.1867-.42.34-.18.3367-.18.55zm6.0781 1.41v-4.43h-1.83v-.6h4.35v.6h-1.84v4.43zm3.5645 0v-5.03h.68v1.92h1.0895c.507 0 .927.1233 1.26.37.334.2467.5.6467.5 1.2 0 .4733-.15.85-.45 1.13-.3.2733-.743.41-1.33.41zm.68-.54h1.0095c.76 0 1.14-.3367 1.14-1.01 0-.32-.093-.57-.28-.75-.186-.18-.47-.27-.85-.27h-1.0195z"/></g></svg>