<svg fill="none" height="25" viewBox="0 0 90 25" width="90" xmlns="http://www.w3.org/2000/svg"><g fill="#95aad5"><path d="m4.94444 20.6522h15.55556v4.3478h-15.55556z"/><path d="m11.6111 7.6087h4.4445v3.2609h-4.4445z"/><path d="m.5 0h4.44444v25h-4.44444z"/><path d="m7.16667 0h4.44443v18.4783h-4.44443z"/><path d="m16.0556 0h4.4444v18.4783h-4.4444z"/></g><path d="m33.59 10v-7h.82l3.14 5.29h-.44l3.1-5.29h.82l.01 7h-.96l-.01-5.49h.23l-2.76 4.64h-.46l-2.78-4.64h.25v5.49zm12.7189 0v-1.12l-.05-.21v-1.91c0-.40667-.12-.72-.36-.94-.2333-.22667-.5867-.34-1.06-.34-.3133 0-.62.05333-.92.16-.3.1-.5533.23667-.76.41l-.4-.72c.2733-.22.6-.38667.98-.5.3867-.12.79-.18 1.21-.18.7267 0 1.2867.17667 1.68.53s.59.89333.59 1.62v3.2zm-1.74.06c-.3933 0-.74-.06667-1.04-.2-.2933-.13333-.52-.31667-.68-.55-.16-.24-.24-.51-.24-.81 0-.28667.0667-.54667.2-.78.14-.23333.3633-.42.67-.56.3133-.14.7333-.21 1.26-.21h1.68v.69h-1.64c-.48 0-.8033.08-.97.24s-.25.35333-.25.58c0 .26.1033.47.31.63.2067.15333.4933.23.86.23.36 0 .6733-.08.94-.24.2733-.16.47-.39333.59-.7l.19.66c-.1267.31333-.35.56333-.67.75-.32.18-.7233.27-1.21.27zm4.3787-.06v-5.3h3.9v.84h-3.17l.23-.22v4.68zm8.1328 0v-1.12l-.05-.21v-1.91c0-.40667-.12-.72-.36-.94-.2333-.22667-.5867-.34-1.06-.34-.3133 0-.62.05333-.92.16-.3.1-.5533.23667-.76.41l-.4-.72c.2733-.22.6-.38667.98-.5.3867-.12.79-.18 1.21-.18.7267 0 1.2867.17667 1.68.53s.59.89333.59 1.62v3.2zm-1.74.06c-.3933 0-.74-.06667-1.04-.2-.2933-.13333-.52-.31667-.68-.55-.16-.24-.24-.51-.24-.81 0-.28667.0667-.54667.2-.78.14-.23333.3633-.42.67-.56.3133-.14.7333-.21 1.26-.21h1.68v.69h-1.64c-.48 0-.8033.08-.97.24s-.25.35333-.25.58c0 .26.1033.47.31.63.2067.15333.4933.23.86.23.36 0 .6733-.08.94-.24.2733-.16.47-.39333.59-.7l.19.66c-.1267.31333-.35.56333-.67.75-.32.18-.7233.27-1.21.27zm5.8408.01c.4666 0 .88-.0667 1.24-.2.3666-.14.6566-.33.87-.57.2133-.24667.32-.53.32-.85 0-.4-.17-.71667-.51-.95s-.8067-.35-1.4-.35l-.04.23c.3466 0 .6533-.05667.92-.17.2666-.11333.48-.26667.64-.46.16-.2.24-.42667.24-.68 0-.3-.1067-.56-.32-.78-.2067-.22-.49-.38667-.85-.5-.36-.12-.77-.17333-1.23-.16-.3067.00667-.6167.05333-.93.14-.3067.08-.62.19667-.94.35l.26.75c.2866-.14.5666-.24333.84-.31.28-.06667.5533-.10333.82-.11.2733 0 .51.03.71.09.2066.06.3666.14667.48.26.1133.11333.17.25.17.41 0 .14667-.05.27667-.15.39-.0934.10667-.2267.18667-.4.24-.1734.05333-.3767.08-.61.08h-.9v.69h.96c.3933 0 .7.06667.92.2s.33.32333.33.57c0 .17333-.06.32667-.18.46-.12.12667-.2934.22667-.52.3-.22.07333-.4834.11-.79.11-.3334 0-.6634-.04333-.99-.13-.3267-.09333-.6167-.22-.87-.38l-.29.73c.3.19333.64.34333 1.02.45.3866.1.78.15 1.18.15zm3.8894-.07v-5.3h.96v3.86l3.25-3.86h.87v5.3h-.96v-3.86l-3.24 3.86zm6.9434 0v-5.3h.96v2.25h3.02v-2.25h.96v5.3h-.96v-2.22h-3.02v2.22zm-34.744 12-2.05-2.58.79-.48 2.39 3.06zm-3.84 0v-5.3h.96v5.3zm.67-2.24v-.82h1.75v.82zm1.99-.3-.89-.12 2.03-2.64h1.03zm5.4108 2.6c-.5334 0-1.0067-.1167-1.42-.35-.4134-.2333-.74-.5533-.98-.96-.24-.4133-.36-.88-.36-1.4 0-.5267.12-.9933.36-1.4s.5666-.7233.98-.95c.4133-.2333.8866-.35 1.42-.35.5266 0 .9966.1167 1.41.35.42.2267.7466.5433.98.95.24.4.36.8667.36 1.4 0 .5267-.12.9933-.36 1.4-.2334.4067-.56.7267-.98.96-.4134.2333-.8834.35-1.41.35zm0-.84c.34 0 .6433-.0767.91-.23.2733-.1533.4866-.37.64-.65.1533-.2867.23-.6167.23-.99 0-.38-.0767-.7067-.23-.98-.1534-.28-.3667-.4967-.64-.65-.2667-.1533-.57-.23-.91-.23s-.6434.0767-.91.23c-.2667.1533-.48.37-.64.65-.16.2733-.24.6-.24.98 0 .3733.08.7033.24.99.16.28.3733.4967.64.65.2666.1533.57.23.91.23zm6.4462.84c-.54 0-1.0233-.1167-1.45-.35-.42-.2333-.75-.5533-.99-.96s-.36-.8733-.36-1.4.12-.9933.36-1.4.57-.7233.99-.95c.4267-.2333.91-.35 1.45-.35.48 0 .9067.0967 1.28.29.38.1867.6734.4667.88.84l-.73.47c-.1733-.26-.3866-.45-.64-.57-.2466-.1267-.5133-.19-.8-.19-.3466 0-.6566.0767-.93.23-.2733.1533-.49.37-.65.65-.16.2733-.24.6-.24.98s.08.71.24.99.3767.4967.65.65c.2734.1533.5834.23.93.23.2867 0 .5534-.06.8-.18.2534-.1267.4667-.32.64-.58l.73.46c-.2066.3667-.5.65-.88.85-.3733.1933-.8.29-1.28.29zm3.4029-.06v-5.3h.99l2.28 3.92h-.4l2.34-3.92h.9v5.3h-.87v-4.22l.16.09-2.14 3.53h-.42l-2.15-3.6.19-.04v4.24zm10.3385.06c-.5666 0-1.0666-.1167-1.5-.35-.4266-.2333-.76-.5533-1-.96-.2333-.4067-.35-.8733-.35-1.4s.1134-.9933.34-1.4c.2334-.4067.55-.7233.95-.95.4067-.2333.8634-.35 1.37-.35.5134 0 .9667.1133 1.36.34.3934.2267.7.5467.92.96.2267.4067.34.8833.34 1.43 0 .04-.0033.0867-.01.14 0 .0533-.0033.1033-.01.15h-4.51v-.69h4.01l-.39.24c.0067-.34-.0633-.6433-.21-.91-.1466-.2667-.35-.4733-.61-.62-.2533-.1533-.55-.23-.89-.23-.3333 0-.63.0767-.89.23-.26.1467-.4633.3567-.61.63-.1466.2667-.22.5733-.22.92v.16c0 .3533.08.67.24.95.1667.2733.3967.4867.69.64.2934.1533.63.23 1.01.23.3134 0 .5967-.0533.85-.16.26-.1067.4867-.2667.68-.48l.53.62c-.24.28-.54.4933-.9.64-.3533.1467-.75.22-1.19.22zm4.7447-.06v-4.71l.24.25h-2.18v-.84h4.84v.84h-2.17l.23-.25v4.71zm3.8817 0v-5.3h.96v3.86l3.25-3.86h.87v5.3h-.96v-3.86l-3.24 3.86zm10.7833 0-2.05-2.58.79-.48 2.39 3.06zm-3.84 0v-5.3h.96v5.3zm.67-2.24v-.82h1.75v.82zm1.99-.3-.89-.12 2.03-2.64h1.03zm3.3166 2.54v-5.3h.96v3.86l3.25-3.86h.87v5.3h-.96v-3.86l-3.24 3.86z" fill="#202020"/></svg>