<svg fill="none" height="173" viewBox="0 0 170 173" width="170" xmlns="http://www.w3.org/2000/svg"><g fill="#95aad5"><path d="m60 92.5217h70v19.4783h-70z"/><path d="m90 34.087h20v14.6086h-20z"/><path d="m40 0h20v112h-20z"/><path d="m70 0h20v82.7826h-20z"/><path d="m110 0h20v82.7826h-20z"/></g><path d="m2.1 147v-14h2v12.26h7.58v1.74zm15.9983.12c-1.0667 0-2.0134-.233-2.84-.7-.8267-.467-1.48-1.107-1.96-1.92-.48-.827-.72-1.76-.72-2.8 0-1.053.24-1.987.72-2.8s1.1333-1.447 1.96-1.9c.8266-.467 1.7733-.7 2.84-.7 1.0533 0 1.9933.233 2.82.7.84.453 1.4933 1.087 1.96 1.9.48.8.72 1.733.72 2.8 0 1.053-.24 1.987-.72 2.8-.4667.813-1.12 1.453-1.96 1.92-.8267.467-1.7667.7-2.82.7zm0-1.68c.68 0 1.2866-.153 1.82-.46.5466-.307.9733-.74 1.28-1.3.3066-.573.46-1.233.46-1.98 0-.76-.1534-1.413-.46-1.96-.3067-.56-.7334-.993-1.28-1.3-.5334-.307-1.14-.46-1.82-.46s-1.2867.153-1.82.46c-.5334.307-.96.74-1.28 1.3-.32.547-.48 1.2-.48 1.96 0 .747.16 1.407.48 1.98.32.56.7466.993 1.28 1.3.5333.307 1.14.46 1.82.46zm10.6423 1.56-4.64-10.6h2l4.12 9.6h-.96l4.2-9.6h1.88l-4.64 10.6zm12.8189.12c-1.1333 0-2.1333-.233-3-.7-.8533-.467-1.52-1.107-2-1.92-.4666-.813-.7-1.747-.7-2.8s.2267-1.987.68-2.8c.4667-.813 1.1-1.447 1.9-1.9.8134-.467 1.7267-.7 2.74-.7 1.0267 0 1.9334.227 2.72.68.7867.453 1.4 1.093 1.84 1.92.4534.813.68 1.767.68 2.86 0 .08-.0066.173-.02.28 0 .107-.0066.207-.02.3h-9.02v-1.38h8.02l-.78.48c.0134-.68-.1266-1.287-.42-1.82-.2933-.533-.7-.947-1.22-1.24-.5066-.307-1.1-.46-1.78-.46-.6666 0-1.26.153-1.78.46-.52.293-.9266.713-1.22 1.26-.2933.533-.44 1.147-.44 1.84v.32c0 .707.16 1.34.48 1.9.3334.547.7934.973 1.38 1.28.5867.307 1.26.46 2.02.46.6267 0 1.1934-.107 1.7-.32.52-.213.9734-.533 1.36-.96l1.06 1.24c-.48.56-1.08.987-1.8 1.28-.7066.293-1.5.44-2.38.44zm7.5261-.12v-14.84h1.92v14.84zm6.046 4c-.5067 0-1-.087-1.48-.26-.48-.16-.8934-.4-1.24-.72l.82-1.44c.2666.253.56.447.88.58s.66.2 1.02.2c.4666 0 .8533-.12 1.16-.36.3066-.24.5933-.667.86-1.28l.66-1.46.2-.24 4.16-9.62h1.88l-5.14 11.66c-.3067.747-.6534 1.333-1.04 1.76-.3734.427-.7867.727-1.24.9-.4534.187-.9534.28-1.5.28zm2.52-3.66-4.84-10.94h2l4.12 9.44zm23.8829-14.34h2v14h-2zm-8.04 14h-2v-14h2zm8.22-6.24h-8.42v-1.74h8.42zm12.3105 6.24v-2.24l-.1-.42v-3.82c0-.813-.24-1.44-.72-1.88-.4667-.453-1.1733-.68-2.12-.68-.6267 0-1.24.107-1.84.32-.6.2-1.1067.473-1.52.82l-.8-1.44c.5467-.44 1.2-.773 1.96-1 .7733-.24 1.58-.36 2.42-.36 1.4533 0 2.5733.353 3.36 1.06s1.18 1.787 1.18 3.24v6.4zm-3.48.12c-.7867 0-1.48-.133-2.08-.4-.5867-.267-1.04-.633-1.36-1.1-.32-.48-.48-1.02-.48-1.62 0-.573.1333-1.093.4-1.56.28-.467.7267-.84 1.34-1.12.6267-.28 1.4667-.42 2.52-.42h3.36v1.38h-3.28c-.96 0-1.6067.16-1.94.48s-.5.707-.5 1.16c0 .52.2067.94.62 1.26.4133.307.9867.46 1.72.46.72 0 1.3467-.16 1.88-.48.5467-.32.94-.787 1.18-1.4l.38 1.32c-.2533.627-.7 1.127-1.34 1.5-.64.36-1.4467.54-2.42.54zm8.8531-.12v-10.6h1.9199v10.6zm.9599-12.64c-.3732 0-.6865-.12-.9399-.36-.24-.24-.36-.533-.36-.88 0-.36.12-.66.36-.9.2534-.24.5667-.36.9399-.36.373 0 .68.12.92.36.253.227.38.513.38.86 0 .36-.12.667-.36.92-.24.24-.553.36-.94.36zm4.626 12.64v-10.6h1.84v2.88l-.18-.72c.293-.733.787-1.293 1.48-1.68s1.547-.58 2.56-.58v1.86c-.08-.013-.16-.02-.24-.02-.067 0-.133 0-.2 0-1.027 0-1.84.307-2.44.92s-.9 1.5-.9 2.66v5.28zm17.934.16c-1.066 0-2.086-.16-3.06-.48-.973-.333-1.74-.76-2.3-1.28l.74-1.56c.534.467 1.214.853 2.04 1.16.827.307 1.687.46 2.58.46.814 0 1.474-.093 1.98-.28.507-.187.88-.44 1.12-.76.24-.333.36-.707.36-1.12 0-.48-.16-.867-.48-1.16-.306-.293-.713-.527-1.22-.7-.493-.187-1.04-.347-1.64-.48s-1.206-.287-1.82-.46c-.6-.187-1.153-.42-1.66-.7-.493-.28-.893-.653-1.2-1.12-.306-.48-.46-1.093-.46-1.84 0-.72.187-1.38.56-1.98.387-.613.974-1.1 1.76-1.46.8-.373 1.814-.56 3.04-.56.814 0 1.62.107 2.42.32s1.494.52 2.08.92l-.66 1.6c-.6-.4-1.233-.687-1.9-.86-.666-.187-1.313-.28-1.94-.28-.786 0-1.433.1-1.94.3-.506.2-.88.467-1.12.8-.226.333-.34.707-.34 1.12 0 .493.154.887.46 1.18.32.293.727.527 1.22.7.507.173 1.06.333 1.66.48.6.133 1.2.287 1.8.46.614.173 1.167.4 1.66.68.507.28.914.653 1.22 1.12.307.467.46 1.067.46 1.8 0 .707-.193 1.367-.58 1.98-.386.6-.986 1.087-1.8 1.46-.8.36-1.813.54-3.04.54zm13.722-10.86c.867 0 1.627.167 2.28.5.667.333 1.187.84 1.56 1.52s.56 1.54.56 2.58v6.1h-1.92v-5.88c0-1.027-.253-1.8-.76-2.32-.493-.52-1.193-.78-2.1-.78-.68 0-1.273.133-1.78.4s-.9.66-1.18 1.18c-.267.52-.4 1.167-.4 1.94v5.46h-1.92v-14.84h1.92v7.1l-.38-.76c.347-.693.88-1.233 1.6-1.62s1.56-.58 2.52-.58zm12.493 10.82c-1.066 0-2.013-.233-2.84-.7-.826-.467-1.48-1.107-1.96-1.92-.48-.827-.72-1.76-.72-2.8 0-1.053.24-1.987.72-2.8s1.134-1.447 1.96-1.9c.827-.467 1.774-.7 2.84-.7 1.054 0 1.994.233 2.82.7.84.453 1.494 1.087 1.96 1.9.48.8.72 1.733.72 2.8 0 1.053-.24 1.987-.72 2.8-.466.813-1.12 1.453-1.96 1.92-.826.467-1.766.7-2.82.7zm0-1.68c.68 0 1.287-.153 1.82-.46.547-.307.974-.74 1.28-1.3.307-.573.46-1.233.46-1.98 0-.76-.153-1.413-.46-1.96-.306-.56-.733-.993-1.28-1.3-.533-.307-1.14-.46-1.82-.46s-1.286.153-1.82.46c-.533.307-.96.74-1.28 1.3-.32.547-.48 1.2-.48 1.96 0 .747.16 1.407.48 1.98.32.56.747.993 1.28 1.3.534.307 1.14.46 1.82.46zm13.776 1.68c-.88 0-1.687-.2-2.42-.6-.72-.413-1.3-1.02-1.74-1.82-.427-.8-.64-1.8-.64-3s.206-2.2.62-3c.426-.8 1-1.4 1.72-1.8.733-.4 1.553-.6 2.46-.6 1.04 0 1.96.227 2.76.68s1.433 1.087 1.9 1.9c.466.8.7 1.74.7 2.82s-.234 2.027-.7 2.84c-.467.813-1.1 1.447-1.9 1.9s-1.72.68-2.76.68zm-5.62 3.76v-14.48h1.84v2.86l-.12 2.46.2 2.46v6.7zm5.46-5.44c.68 0 1.286-.153 1.82-.46.546-.307.973-.74 1.28-1.3.32-.573.48-1.233.48-1.98 0-.76-.16-1.413-.48-1.96-.307-.56-.734-.993-1.28-1.3-.534-.307-1.14-.46-1.82-.46-.667 0-1.274.153-1.82.46-.534.307-.96.74-1.28 1.3-.307.547-.46 1.2-.46 1.96 0 .747.153 1.407.46 1.98.32.56.746.993 1.28 1.3.546.307 1.153.46 1.82.46z" fill="#202020"/><path d="m13.026 170v-9.8h1.148l4.396 7.406h-.616l4.34-7.406h1.148l.014 9.8h-1.344l-.014-7.686h.322l-3.864 6.496h-.644l-3.892-6.496h.35v7.686zm17.8065 0v-1.568l-.07-.294v-2.674c0-.569-.168-1.008-.504-1.316-.3267-.317-.8214-.476-1.484-.476-.4387 0-.868.075-1.288.224-.42.14-.7747.331-1.064.574l-.56-1.008c.3826-.308.84-.541 1.372-.7.5413-.168 1.106-.252 1.694-.252 1.0173 0 1.8013.247 2.352.742.5506.495.826 1.251.826 2.268v4.48zm-2.436.084c-.5507 0-1.036-.093-1.456-.28-.4107-.187-.728-.443-.952-.77-.224-.336-.336-.714-.336-1.134 0-.401.0933-.765.28-1.092.196-.327.5086-.588.938-.784.4386-.196 1.0266-.294 1.764-.294h2.352v.966h-2.296c-.672 0-1.1247.112-1.358.336-.2334.224-.35.495-.35.812 0 .364.1446.658.434.882.2893.215.6906.322 1.204.322.504 0 .9426-.112 1.316-.336.3826-.224.658-.551.826-.98l.266.924c-.1774.439-.49.789-.938 1.05-.448.252-1.0127.378-1.694.378zm6.1301-.084v-7.42h5.46v1.176h-4.438l.322-.308v6.552zm11.3859 0v-1.568l-.07-.294v-2.674c0-.569-.168-1.008-.504-1.316-.3266-.317-.8213-.476-1.484-.476-.4386 0-.868.075-1.288.224-.42.14-.7746.331-1.064.574l-.56-1.008c.3827-.308.84-.541 1.372-.7.5414-.168 1.106-.252 1.694-.252 1.0174 0 1.8014.247 2.352.742.5507.495.826 1.251.826 2.268v4.48zm-2.436.084c-.5506 0-1.036-.093-1.456-.28-.4106-.187-.728-.443-.952-.77-.224-.336-.336-.714-.336-1.134 0-.401.0934-.765.28-1.092.196-.327.5087-.588.938-.784.4387-.196 1.0267-.294 1.764-.294h2.352v.966h-2.296c-.672 0-1.1246.112-1.358.336-.2333.224-.35.495-.35.812 0 .364.1447.658.434.882.2894.215.6907.322 1.204.322.504 0 .9427-.112 1.316-.336.3827-.224.658-.551.826-.98l.266.924c-.1773.439-.49.789-.938 1.05-.448.252-1.0126.378-1.694.378zm8.1771.014c.6534 0 1.232-.093 1.736-.28.5134-.196.9194-.462 1.218-.798.2987-.345.448-.742.448-1.19 0-.56-.238-1.003-.714-1.33s-1.1293-.49-1.96-.49l-.056.322c.4854 0 .9147-.079 1.288-.238.3734-.159.672-.373.896-.644.224-.28.336-.597.336-.952 0-.42-.1493-.784-.448-1.092-.2893-.308-.686-.541-1.19-.7-.504-.168-1.078-.243-1.722-.224-.4293.009-.8633.075-1.302.196-.4293.112-.868.275-1.316.49l.364 1.05c.4014-.196.7934-.341 1.176-.434.392-.093.7747-.145 1.148-.154.3827 0 .714.042.994.126.2894.084.5134.205.672.364.1587.159.238.35.238.574 0 .205-.07.387-.21.546-.1306.149-.3173.261-.56.336-.2426.075-.5273.112-.854.112h-1.26v.966h1.344c.5507 0 .98.093 1.288.28s.462.453.462.798c0 .243-.084.457-.252.644-.168.177-.4106.317-.728.42-.308.103-.6766.154-1.106.154-.4666 0-.9286-.061-1.386-.182-.4573-.131-.8633-.308-1.218-.532l-.406 1.022c.42.271.896.481 1.428.63.5414.14 1.092.21 1.652.21zm5.4453-.098v-7.42h1.344v5.404l4.55-5.404h1.218v7.42h-1.344v-5.404l-4.536 5.404zm9.7207 0v-7.42h1.344v3.15h4.228v-3.15h1.344v7.42h-1.344v-3.108h-4.228v3.108zm18.665 0-2.87-3.612 1.106-.672 3.346 4.284zm-5.376 0v-7.42h1.344v7.42zm.938-3.136v-1.148h2.45v1.148zm2.786-.42-1.246-.168 2.842-3.696h1.442zm7.5751 3.64c-.7466 0-1.4093-.163-1.988-.49-.5786-.327-1.036-.775-1.372-1.344-.336-.579-.504-1.232-.504-1.96 0-.737.168-1.391.504-1.96s.7934-1.013 1.372-1.33c.5787-.327 1.2414-.49 1.988-.49.7374 0 1.3954.163 1.974.49.588.317 1.0454.761 1.372 1.33.336.56.504 1.213.504 1.96 0 .737-.168 1.391-.504 1.96-.3266.569-.784 1.017-1.372 1.344-.5786.327-1.2366.49-1.974.49zm0-1.176c.476 0 .9007-.107 1.274-.322.3827-.215.6814-.518.896-.91.2147-.401.322-.863.322-1.386 0-.532-.1073-.989-.322-1.372-.2146-.392-.5133-.695-.896-.91-.3733-.215-.798-.322-1.274-.322s-.9006.107-1.274.322c-.3733.215-.672.518-.896.91-.224.383-.336.84-.336 1.372 0 .523.112.985.336 1.386.224.392.5227.695.896.91.3734.215.798.322 1.274.322zm9.0243 1.176c-.7555 0-1.4322-.163-2.0295-.49-.588-.327-1.05-.775-1.386-1.344s-.504-1.223-.504-1.96.168-1.391.504-1.96.798-1.013 1.386-1.33c.5973-.327 1.274-.49 2.0295-.49.672 0 1.27.135 1.792.406.532.261.943.653 1.232 1.176l-1.022.658c-.242-.364-.541-.63-.896-.798-.345-.177-.718-.266-1.12-.266-.4848 0-.9188.107-1.3015.322s-.686.518-.91.91c-.224.383-.336.84-.336 1.372s.112.994.336 1.386.5273.695.91.91.8167.322 1.3015.322c.402 0 .775-.084 1.12-.252.355-.177.654-.448.896-.812l1.022.644c-.289.513-.7.91-1.232 1.19-.522.271-1.12.406-1.792.406zm4.765-.084v-7.42h1.386l3.192 5.488h-.56l3.276-5.488h1.26v7.42h-1.218v-5.908l.224.126-2.996 4.942h-.588l-3.01-5.04.266-.056v5.936zm14.473.084c-.793 0-1.493-.163-2.1-.49-.597-.327-1.064-.775-1.4-1.344-.326-.569-.49-1.223-.49-1.96s.159-1.391.476-1.96c.327-.569.77-1.013 1.33-1.33.57-.327 1.209-.49 1.918-.49.719 0 1.354.159 1.904.476.551.317.98.765 1.288 1.344.318.569.476 1.237.476 2.002 0 .056-.004.121-.014.196 0 .075-.004.145-.014.21h-6.314v-.966h5.614l-.546.336c.01-.476-.088-.901-.294-1.274-.205-.373-.49-.663-.854-.868-.354-.215-.77-.322-1.246-.322-.466 0-.882.107-1.246.322-.364.205-.648.499-.854.882-.205.373-.308.803-.308 1.288v.224c0 .495.112.938.336 1.33.234.383.556.681.966.896.411.215.882.322 1.414.322.439 0 .836-.075 1.19-.224.364-.149.682-.373.952-.672l.742.868c-.336.392-.756.691-1.26.896-.494.205-1.05.308-1.666.308zm6.643-.084v-6.594l.336.35h-3.052v-1.176h6.776v1.176h-3.038l.322-.35v6.594zm5.434 0v-7.42h1.344v5.404l4.55-5.404h1.218v7.42h-1.344v-5.404l-4.536 5.404zm15.097 0-2.87-3.612 1.106-.672 3.346 4.284zm-5.376 0v-7.42h1.344v7.42zm.938-3.136v-1.148h2.45v1.148zm2.786-.42-1.246-.168 2.842-3.696h1.442zm4.643 3.556v-7.42h1.344v5.404l4.55-5.404h1.218v7.42h-1.344v-5.404l-4.536 5.404z" fill="#646464"/></svg>