<svg width="14" height="14" viewBox="0 0 14 14" fill="none" xmlns="http://www.w3.org/2000/svg">
<path d="M10.5 7.25C10.5 7.66421 10.1642 8 9.75 8C9.33579 8 9 7.66421 9 7.25C9 6.83579 9.33579 6.5 9.75 6.5C10.1642 6.5 10.5 6.83579 10.5 7.25Z" fill="currentColor"/>
<path d="M5 7.25C5 7.66421 4.66421 8 4.25 8C3.83579 8 3.5 7.66421 3.5 7.25C3.5 6.83579 3.83579 6.5 4.25 6.5C4.66421 6.5 5 6.83579 5 7.25Z" fill="currentColor"/>
<path fill-rule="evenodd" clip-rule="evenodd" d="M0.5 5.5C0.5 4.39543 1.39543 3.5 2.5 3.5L3.5 3.5C3.5 1.567 5.067 -8.4494e-08 7 0C8.933 8.4494e-08 10.5 1.567 10.5 3.5H11.5C12.6046 3.5 13.5 4.39543 13.5 5.5V11C13.5 12.6569 12.1569 14 10.5 14H3.5C1.84315 14 0.5 12.6569 0.5 11V5.5ZM3.5 5H2.5C2.22386 5 2 5.22386 2 5.5V11C2 11.8284 2.67157 12.5 3.5 12.5H10.5C11.3284 12.5 12 11.8284 12 11V5.5C12 5.22386 11.7761 5 11.5 5H10.5H3.5ZM5 3.5L9 3.5C9 2.39543 8.10457 1.5 7 1.5C5.89543 1.5 5 2.39543 5 3.5Z" fill="currentColor"/>
</svg>
