<svg width="20" height="20" viewBox="0 0 20 20" xmlns="http://www.w3.org/2000/svg">
<path fill-rule="evenodd" clip-rule="evenodd" d="M8.29144 1H11.7086C12.6064 0.999989 13.3407 0.99998 13.9374 1.047C14.5551 1.09566 15.113 1.19946 15.634 1.45544C16.4493 1.85605 17.1122 2.4953 17.5277 3.28155C17.7932 3.78393 17.9008 4.32187 17.9513 4.9175C18 5.49293 18 6.20098 18 7.06675V14.845C18 15.5611 18 16.1645 17.9554 16.6366C17.911 17.1049 17.8113 17.6305 17.4646 18.0593C16.9986 18.6357 16.2895 18.9806 15.5318 18.9994C14.9681 19.0134 14.4705 18.7783 14.0536 18.5344C13.6333 18.2885 13.1301 17.9298 12.5329 17.5042L10.6736 16.1791C10.4349 16.0091 10.2966 15.9112 10.188 15.8446C10.1214 15.8037 10.0907 15.7905 10.0823 15.7873C10.0283 15.774 9.97171 15.774 9.91772 15.7873C9.90935 15.7905 9.87861 15.8037 9.81199 15.8446C9.70337 15.9112 9.56506 16.0091 9.32641 16.1791L7.46708 17.5042C6.86989 17.9298 6.36666 18.2885 5.94639 18.5344C5.5295 18.7783 5.0319 19.0134 4.46818 18.9994C3.71053 18.9806 3.00139 18.6357 2.53541 18.0593C2.1887 17.6305 2.08898 17.1049 2.04465 16.6366C1.99996 16.1645 1.99998 15.5611 2 14.845L2 7.06677C1.99999 6.20099 1.99998 5.49294 2.04874 4.9175C2.0992 4.32187 2.20685 3.78393 2.47231 3.28155C2.88776 2.4953 3.55067 1.85605 4.36604 1.45544C4.88703 1.19946 5.4449 1.09566 6.06258 1.047C6.65933 0.99998 7.39361 0.999989 8.29144 1ZM9.92016 15.7865L9.91772 15.7873ZM10.0798 15.7865L10.0823 15.7873ZM6.22544 2.96917C5.73144 3.00809 5.46608 3.07945 5.27403 3.17381C4.83498 3.38953 4.47803 3.73374 4.25432 4.1571C4.15647 4.3423 4.08246 4.59819 4.04209 5.07454C4.00078 5.56216 4 6.19116 4 7.10716V14.7986C4 15.5735 4.001 16.0877 4.03637 16.4613C4.066 16.7743 4.11234 16.8689 4.11714 16.8789C4.21379 16.9953 4.35804 17.0654 4.51248 17.0712C4.52371 17.069 4.63013 17.0487 4.90882 16.8856C5.24144 16.691 5.67087 16.3862 6.31712 15.9256L8.13771 14.6282C8.16805 14.6065 8.19854 14.5847 8.22919 14.5627C8.58723 14.306 8.96848 14.0327 9.41237 13.9213C9.79771 13.8246 10.2023 13.8246 10.5876 13.9213C11.0315 14.0327 11.4128 14.306 11.7708 14.5627C11.8015 14.5847 11.8319 14.6065 11.8623 14.6282L13.6829 15.9256C14.3291 16.3862 14.7586 16.691 15.0912 16.8856C15.3699 17.0487 15.4763 17.069 15.4875 17.0712C15.642 17.0654 15.7862 16.9953 15.8829 16.8789C15.8877 16.8689 15.934 16.7743 15.9636 16.4613C15.999 16.0877 16 15.5735 16 14.7986V7.10716C16 6.19117 15.9992 5.56216 15.9579 5.07454C15.9175 4.59819 15.8435 4.3423 15.7457 4.1571C15.522 3.73374 15.165 3.38953 14.726 3.17381C14.5339 3.07945 14.2686 3.00809 13.7746 2.96917C13.2689 2.92933 12.6166 2.92858 11.6667 2.92858H8.33334C7.38341 2.92858 6.73111 2.92933 6.22544 2.96917Z"/>
</svg>
