<svg width="32" height="32" viewBox="0 0 32 32" fill="currentColor" xmlns="http://www.w3.org/2000/svg">
<path fill-rule="evenodd" clip-rule="evenodd" d="M7.55167 7.55148C8.0203 7.08285 8.78009 7.08285 9.24872 7.55148L16.0002 14.303L22.7517 7.55148C23.2203 7.08285 23.9801 7.08285 24.4487 7.55148C24.9174 8.02011 24.9174 8.77991 24.4487 9.24854L17.6973 16L24.4487 22.7515C24.9174 23.2201 24.9174 23.9799 24.4487 24.4485C23.9801 24.9172 23.2203 24.9172 22.7517 24.4485L16.0002 17.6971L9.24872 24.4485C8.78009 24.9172 8.0203 24.9172 7.55167 24.4485C7.08304 23.9799 7.08304 23.2201 7.55167 22.7515L14.3031 16L7.55167 9.24854C7.08304 8.77991 7.08304 8.02011 7.55167 7.55148Z"/>
</svg>
