<svg width="20" height="20" viewBox="0 0 20 20" fill="currentColor" xmlns="http://www.w3.org/2000/svg">
<path fill-rule="evenodd" clip-rule="evenodd" d="M2.40983 4.01337C2.26913 3.97125 2.07842 3.96168 1.30292 3.96168H0.94952C0.425115 3.96168 0 3.52257 0 2.98091C0 2.43925 0.425115 2.00014 0.94952 2.00014L1.42102 2.00007C2.01664 1.99952 2.50328 1.99908 2.93849 2.12937C3.80912 2.39002 4.52977 3.02373 4.9178 3.8699C4.93164 3.90007 4.94488 3.93061 4.95757 3.96154L16.2289 3.96154C16.6391 3.96153 16.988 3.96152 17.2734 3.97893C17.5687 3.99694 17.8676 4.03639 18.1595 4.14978C19.1424 4.53149 19.8423 5.44077 19.9807 6.5159C20.0218 6.83526 19.9917 7.14489 19.9421 7.44612C19.8942 7.73725 19.8155 8.08835 19.723 8.50124L19.0202 11.6385C18.9142 12.114 18.8219 12.5282 18.6368 12.8814C18.2675 13.5862 17.6358 14.1049 16.8878 14.3177C16.5129 14.4243 16.1014 14.4238 15.629 14.4233L7.73561 14.4233C7.23347 14.4239 6.79688 14.4244 6.40442 14.3069C5.62086 14.0723 4.97227 13.502 4.62304 12.7404C4.44813 12.359 4.37895 11.9137 4.29939 11.4016L3.42759 5.83003C3.30385 5.03927 3.26427 4.84633 3.20156 4.70958C3.04635 4.37111 2.75808 4.11763 2.40983 4.01337ZM5.36584 5.92308L6.15687 10.978C6.26436 11.6649 6.29582 11.806 6.33929 11.9008C6.4557 12.1546 6.67189 12.3447 6.93308 12.4229C7.03062 12.4521 7.17042 12.4617 7.8441 12.4617H15.5277C16.1599 12.4617 16.2902 12.4531 16.3837 12.4265C16.633 12.3556 16.8436 12.1827 16.9667 11.9477C17.0128 11.8597 17.0503 11.7305 17.1928 11.0943L17.8667 8.08647C17.967 7.63867 18.0325 7.34443 18.0699 7.11732C18.1067 6.89389 18.1026 6.80864 18.0983 6.77453C18.0521 6.41615 17.8188 6.11306 17.4912 5.98582C17.46 5.97372 17.3805 5.95042 17.1615 5.93706C16.9388 5.92348 16.6465 5.92308 16.2016 5.92308H5.36584Z"/>
<path d="M5.69712 17.3654C5.69712 16.4626 6.40564 15.7308 7.27965 15.7308C8.15366 15.7308 8.86219 16.4626 8.86219 17.3654C8.86219 18.2682 8.15366 19 7.27965 19C6.40564 19 5.69712 18.2682 5.69712 17.3654Z"/>
<path d="M15.5088 15.7308C14.6348 15.7308 13.9263 16.4626 13.9263 17.3654C13.9263 18.2682 14.6348 19 15.5088 19C16.3828 19 17.0914 18.2682 17.0914 17.3654C17.0914 16.4626 16.3828 15.7308 15.5088 15.7308Z"/>
</svg>
