<svg width="24" height="24" viewBox="0 0 24 24" fill="currentColor" xmlns="http://www.w3.org/2000/svg">
<path fill-rule="evenodd" clip-rule="evenodd" d="M7.77354 5.57143H3.07143C2.47969 5.57143 2 6.05112 2 6.64286C2 7.23459 2.47969 7.71429 3.07143 7.71429H3.85348L4.90808 17.9976C4.96048 18.5087 5.00594 18.9521 5.07237 19.317C5.14285 19.704 5.24976 20.0846 5.46773 20.4459C5.79518 20.9888 6.27585 21.4227 6.84927 21.693C7.23097 21.873 7.62046 21.9405 8.01268 21.9712C8.38242 22 8.82819 22 9.34192 22H14.6581C15.1719 22 15.6176 22 15.9874 21.9712C16.3796 21.9406 16.7691 21.873 17.1507 21.6931C17.7242 21.4227 18.2048 20.9888 18.5323 20.446C18.7503 20.0846 18.8572 19.7041 18.9277 19.317C18.9941 18.9522 19.0396 18.5088 19.092 17.9978L20.1468 7.71429H20.9286C21.5203 7.71429 22 7.23459 22 6.64286C22 6.05112 21.5203 5.57143 20.9286 5.57143H16.2265C15.8864 3.54449 14.1236 2 12 2C9.87643 2 8.1136 3.54449 7.77354 5.57143ZM9.97908 5.57143H14.0209C13.7268 4.73915 12.933 4.14286 12 4.14286C11.067 4.14286 10.2732 4.73915 9.97908 5.57143ZM17.9927 7.71429H6.00757L7.03581 17.7405C7.0933 18.3011 7.13092 18.6604 7.18057 18.9331C7.22784 19.1927 7.27273 19.2896 7.30261 19.3391C7.41176 19.5201 7.57198 19.6647 7.76312 19.7548C7.81544 19.7795 7.91637 19.8143 8.17946 19.8348C8.45578 19.8564 8.81711 19.8571 9.38065 19.8571H14.6194C15.1829 19.8571 15.5443 19.8564 15.8206 19.8348C16.0837 19.8143 16.1846 19.7795 16.2369 19.7548C16.428 19.6647 16.5883 19.5201 16.6974 19.3391C16.7273 19.2896 16.7722 19.1928 16.8195 18.9331C16.8691 18.6605 16.9067 18.3011 16.9642 17.7405L17.9927 7.71429ZM9.4465 9.14419C10.0375 9.11464 10.5405 9.56979 10.5701 10.1608L10.9272 17.3036C10.9568 17.8946 10.5016 18.3977 9.91065 18.4272C9.31965 18.4568 8.8166 18.0016 8.78705 17.4106L8.42991 10.2678C8.40036 9.67679 8.8555 9.17374 9.4465 9.14419ZM14.5535 9.14419C15.1445 9.17374 15.5996 9.67679 15.5701 10.2678L15.2129 17.4106C15.1834 18.0016 14.6803 18.4568 14.0894 18.4272C13.4984 18.3977 13.0432 17.8946 13.0728 17.3036L13.4299 10.1608C13.4595 9.56979 13.9625 9.11464 14.5535 9.14419Z"/>
</svg>
