<svg width="20" height="20" viewBox="0 0 20 20" fill="none" xmlns="http://www.w3.org/2000/svg">
<path fill-rule="evenodd" clip-rule="evenodd" d="M7.14823 2.5H12.8518C13.6935 2.49999 14.3819 2.49998 14.9413 2.54569C15.5204 2.593 16.0434 2.69392 16.5318 2.94279C17.2962 3.33227 17.9177 3.95376 18.3072 4.71816C18.5561 5.20659 18.657 5.72959 18.7043 6.30866C18.75 6.86811 18.75 7.55649 18.75 8.3982V11.6018C18.75 12.4435 18.75 13.1319 18.7043 13.6913C18.657 14.2704 18.5561 14.7934 18.3072 15.2818C17.9177 16.0462 17.2962 16.6677 16.5318 17.0572C16.0434 17.3061 15.5204 17.407 14.9413 17.4543C14.3819 17.5 13.6935 17.5 12.8518 17.5H7.1482C6.30649 17.5 5.61812 17.5 5.05867 17.4543C4.47959 17.407 3.95659 17.3061 3.46817 17.0572C2.70376 16.6677 2.08227 16.0462 1.69279 15.2818C1.44392 14.7934 1.343 14.2704 1.29569 13.6913C1.24998 13.1319 1.24999 12.4435 1.25 11.6018V8.39823C1.24999 7.55651 1.24998 6.86812 1.29569 6.30866C1.343 5.72959 1.44392 5.20659 1.69279 4.71816C2.08227 3.95376 2.70376 3.33227 3.46817 2.94279C3.95659 2.69392 4.47959 2.593 5.05867 2.54569C5.61812 2.49998 6.30651 2.49999 7.14823 2.5ZM4.71898 4.48051L9.33707 9.09871C9.70319 9.46484 10.2968 9.46484 10.6629 9.09872L15.2811 4.48053C15.1492 4.4531 14.989 4.43083 14.7887 4.41446C14.3146 4.37573 13.7031 4.375 12.8125 4.375H7.1875C6.29695 4.375 5.68542 4.37573 5.21135 4.41446C5.01106 4.43083 4.85087 4.45309 4.71898 4.48051ZM16.6991 5.71418L11.9887 10.4245C10.8904 11.5229 9.10958 11.5229 8.01123 10.4245L3.30093 5.71411C3.23998 5.88228 3.19315 6.1102 3.16446 6.46135C3.12573 6.93542 3.125 7.54695 3.125 8.4375V11.5625C3.125 12.4531 3.12573 13.0646 3.16446 13.5387C3.2023 14.0018 3.27168 14.2506 3.36342 14.4306C3.57315 14.8422 3.90779 15.1769 4.3194 15.3866C4.49944 15.4783 4.74822 15.5477 5.21135 15.5855C5.68542 15.6243 6.29695 15.625 7.1875 15.625H12.8125C13.7031 15.625 14.3146 15.6243 14.7887 15.5855C15.2518 15.5477 15.5006 15.4783 15.6806 15.3866C16.0922 15.1769 16.4269 14.8422 16.6366 14.4306C16.7283 14.2506 16.7977 14.0018 16.8355 13.5387C16.8743 13.0646 16.875 12.4531 16.875 11.5625V8.4375C16.875 7.54695 16.8743 6.93542 16.8355 6.46135C16.8069 6.11025 16.76 5.88234 16.6991 5.71418Z" fill="currentColor"/>
</svg>
