<svg width="12" height="10" viewBox="0 0 12 10" fill="currentColor" xmlns="http://www.w3.org/2000/svg">
<path fill-rule="evenodd" clip-rule="evenodd" d="M0 0.75C0 0.335786 0.335786 0 0.75 0H11.25C11.6642 0 12 0.335786 12 0.75C12 1.16421 11.6642 1.5 11.25 1.5H0.75C0.335786 1.5 0 1.16421 0 0.75Z"/>
<path fill-rule="evenodd" clip-rule="evenodd" d="M0 9.25C0 8.83579 0.335786 8.5 0.75 8.5H6.25C6.66421 8.5 7 8.83579 7 9.25C7 9.66421 6.66421 10 6.25 10H0.75C0.335786 10 0 9.66421 0 9.25Z"/>
<path fill-rule="evenodd" clip-rule="evenodd" d="M0 5C0 4.58579 0.335786 4.25 0.75 4.25H11.25C11.6642 4.25 12 4.58579 12 5C12 5.41421 11.6642 5.75 11.25 5.75H0.75C0.335786 5.75 0 5.41421 0 5Z"/>
</svg>
