<svg fill="none" height="20" viewBox="0 0 21 20" width="21" xmlns="http://www.w3.org/2000/svg"><g fill="currentColor"><path d="m5.0045 5.023c-.0545.10696-.0545.24697-.0545.527v.15c0 .28003 0 .42004.0545.527.04794.09408.12443.17057.21851.2185.10696.0545.24697.0545.52699.0545h.15c.28003 0 .42004 0 .527-.0545.09408-.04793.17057-.12442.21851-.2185.05449-.10696.05449-.24697.05449-.527v-.15c0-.28003 0-.42004-.05449-.527-.04794-.09408-.12443-.17057-.21851-.2185-.10696-.0545-.24697-.0545-.527-.0545h-.15c-.28002 0-.42003 0-.52699.0545-.09408.04793-.17057.12442-.21851.2185z"/><path clip-rule="evenodd" d="m2.41799 3.09202c-.21799.42782-.21799.98788-.21799 2.10798v.85c0 1.1201 0 1.68016.21799 2.10798.19175.37633.49771.68229.87403.87403.42783.21799.98788.21799 2.10798.21799h.85c1.12011 0 1.68016 0 2.10799-.21799.37632-.19174.68228-.4977.87403-.87403.21798-.42782.21798-.98788.21798-2.10798v-.85c0-1.1201 0-1.68016-.21798-2.10798-.19175-.37633-.49771-.68229-.87403-.87403-.42783-.21799-.98788-.21799-2.10799-.21799h-.85c-1.1201 0-1.68015 0-2.10798.21799-.37632.19174-.68228.4977-.87403.87403zm3.83201.40798h-.85c-.5848 0-.93319.00117-1.19144.02227-.15762.01287-.22387.02987-.24163.03538-.08928.04704-.16224.12-.20928.20927-.00551.01776-.0225.08401-.03538.24163-.0211.25826-.02227.60665-.02227 1.19145v.85c0 .5848.00117.93319.02227 1.19145.01288.15762.02987.22387.03538.24163.04704.08927.12.16223.20928.20927.01775.00551.08401.02251.24163.03538.25825.0211.60664.02227 1.19144.02227h.85c.58481 0 .9332-.00117 1.19145-.02227.15762-.01287.22387-.02987.24163-.03538.08928-.04704.16224-.12.20928-.20927.00551-.01776.0225-.08401.03538-.24163.0211-.25826.02226-.60665.02226-1.19145v-.85c0-.5848-.00116-.93319-.02226-1.19145-.01288-.15761-.02987-.22387-.03538-.24162-.04704-.08928-.12-.16224-.20928-.20928-.01776-.00551-.08401-.02251-.24163-.03538-.25825-.0211-.60664-.02227-1.19145-.02227z" fill-rule="evenodd"/><path d="m4.95 14.3c0-.28 0-.42.0545-.527.04794-.0941.12443-.1706.21851-.2185.10696-.0545.24697-.0545.52699-.0545h.15c.28003 0 .42004 0 .527.0545.09408.0479.17057.1244.21851.2185.05449.107.05449.247.05449.527v.15c0 .28 0 .42-.05449.527-.04794.0941-.12443.1706-.21851.2185-.10696.0545-.24697.0545-.527.0545h-.15c-.28002 0-.42003 0-.52699-.0545-.09408-.0479-.17057-.1244-.21851-.2185-.0545-.107-.0545-.247-.0545-.527z"/><path clip-rule="evenodd" d="m2.41799 11.842c-.21799.4278-.21799.9879-.21799 2.108v.85c0 1.1201 0 1.6802.21799 2.108.19175.3763.49771.6823.87403.874.42783.218.98788.218 2.10798.218h.85c1.12011 0 1.68016 0 2.10799-.218.37632-.1917.68228-.4977.87403-.874.21798-.4278.21798-.9879.21798-2.108v-.85c0-1.1201 0-1.6802-.21798-2.108-.19175-.3763-.49771-.6823-.87403-.874-.42783-.218-.98788-.218-2.10799-.218h-.85c-1.1201 0-1.68015 0-2.10798.218-.37632.1917-.68228.4977-.87403.874zm3.83201.408h-.85c-.5848 0-.93319.0012-1.19144.0223-.15762.0128-.22387.0298-.24163.0353-.08928.0471-.16224.12-.20928.2093-.00551.0178-.0225.084-.03538.2417-.0211.2582-.02227.6066-.02227 1.1914v.85c0 .5848.00117.9332.02227 1.1914.01288.1577.02987.2239.03538.2417.04704.0893.12.1622.20928.2093.01775.0055.08401.0225.24163.0353.25825.0211.60664.0223 1.19144.0223h.85c.58481 0 .9332-.0012 1.19145-.0223.15762-.0128.22387-.0298.24163-.0353.08928-.0471.16224-.12.20928-.2093.00551-.0178.0225-.084.03538-.2417.0211-.2582.02226-.6066.02226-1.1914v-.85c0-.5848-.00116-.9332-.02226-1.1914-.01288-.1577-.02987-.2239-.03538-.2417-.04704-.0893-.12-.1622-.20928-.2093-.01776-.0055-.08401-.0225-.24163-.0353-.25825-.0211-.60664-.0223-1.19145-.0223z" fill-rule="evenodd"/><path d="m13.7545 5.023c-.0545.10696-.0545.24697-.0545.527v.15c0 .28003 0 .42004.0545.527.0479.09408.1244.17057.2185.2185.107.0545.247.0545.527.0545h.15c.28 0 .42 0 .527-.0545.0941-.04793.1706-.12442.2185-.2185.0545-.10696.0545-.24697.0545-.527v-.15c0-.28003 0-.42004-.0545-.527-.0479-.09408-.1244-.17057-.2185-.2185-.107-.0545-.247-.0545-.527-.0545h-.15c-.28 0-.42 0-.527.0545-.0941.04793-.1706.12442-.2185.2185z"/><path clip-rule="evenodd" d="m10.95 5.2c0-1.1201 0-1.68016.218-2.10798.1917-.37633.4977-.68229.874-.87403.4278-.21799.9879-.21799 2.108-.21799h.85c1.1201 0 1.6802 0 2.108.21799.3763.19174.6823.4977.874.87403.218.42782.218.98788.218 2.10798v.85c0 1.1201 0 1.68016-.218 2.10798-.1917.37633-.4977.68229-.874.87403-.4278.21799-.9879.21799-2.108.21799h-.85c-1.1201 0-1.6802 0-2.108-.21799-.3763-.19174-.6823-.4977-.874-.87403-.218-.42782-.218-.98788-.218-2.10798zm3.2-1.7h.85c.5848 0 .9332.00117 1.1915.02227.1576.01287.2238.02987.2416.03538.0893.04704.1622.12.2093.20928.0055.01775.0225.08401.0353.24162.0211.25826.0223.60665.0223 1.19145v.85c0 .5848-.0012.93319-.0223 1.19145-.0128.15762-.0298.22387-.0353.24163-.0471.08927-.12.16223-.2093.20927-.0178.00551-.084.02251-.2416.03538-.2583.0211-.6067.02227-1.1915.02227h-.85c-.5848 0-.9332-.00117-1.1914-.02227-.1577-.01287-.2239-.02987-.2417-.03538-.0892-.04704-.1622-.12-.2092-.20927-.0056-.01776-.0226-.08401-.0354-.24163-.0211-.25826-.0223-.60665-.0223-1.19145v-.85c0-.5848.0012-.93319.0223-1.19145.0128-.15762.0298-.22387.0354-.24163.047-.08927.12-.16223.2092-.20927.0178-.00551.084-.02251.2417-.03538.2582-.0211.6066-.02227 1.1914-.02227z" fill-rule="evenodd"/><path d="m11.4154 11.4776c-.0654.1284-.0654.2964-.0654.6324v.68c0 .3361 0 .5041.0654.6324.0575.1129.1493.2047.2622.2622.1284.0654.2964.0654.6324.0654h.68c.3361 0 .5041 0 .6324-.0654.1129-.0575.2047-.1493.2622-.2622.0654-.1283.0654-.2963.0654-.6324v-.68c0-.336 0-.504-.0654-.6324-.0575-.1129-.1493-.2047-.2622-.2622-.1283-.0654-.2963-.0654-.6324-.0654h-.68c-.336 0-.504 0-.6324.0654-.1129.0575-.2047.1493-.2622.2622z"/><path d="m11.35 15.96c0-.336 0-.504.0654-.6324.0575-.1129.1493-.2047.2622-.2622.1284-.0654.2964-.0654.6324-.0654h.68c.3361 0 .5041 0 .6324.0654.1129.0575.2047.1493.2622.2622.0654.1284.0654.2964.0654.6324v.68c0 .336 0 .504-.0654.6324-.0575.1129-.1493.2047-.2622.2622-.1283.0654-.2963.0654-.6324.0654h-.68c-.336 0-.504 0-.6324-.0654-.1129-.0575-.2047-.1493-.2622-.2622-.0654-.1284-.0654-.2964-.0654-.6324z"/><path d="m15.2654 15.3276c-.0654.1284-.0654.2964-.0654.6324v.68c0 .336 0 .504.0654.6324.0575.1129.1493.2047.2622.2622.1284.0654.2964.0654.6324.0654h.68c.336 0 .5041 0 .6324-.0654.1129-.0575.2047-.1493.2622-.2622.0654-.1284.0654-.2964.0654-.6324v-.68c0-.336 0-.504-.0654-.6324-.0575-.1129-.1493-.2047-.2622-.2622-.1283-.0654-.2964-.0654-.6324-.0654h-.68c-.336 0-.504 0-.6324.0654-.1129.0575-.2047.1493-.2622.2622z"/><path d="m15.2 12.11c0-.336 0-.504.0654-.6324.0575-.1129.1493-.2047.2622-.2622.1284-.0654.2964-.0654.6324-.0654h.68c.336 0 .5041 0 .6324.0654.1129.0575.2047.1493.2622.2622.0654.1284.0654.2964.0654.6324v.68c0 .3361 0 .5041-.0654.6324-.0575.1129-.1493.2047-.2622.2622-.1283.0654-.2964.0654-.6324.0654h-.68c-.336 0-.504 0-.6324-.0654-.1129-.0575-.2047-.1493-.2622-.2622-.0654-.1283-.0654-.2963-.0654-.6324z"/></g></svg>