<svg width="18" height="18" viewBox="0 0 18 18" xmlns="http://www.w3.org/2000/svg">
<path d="M7.12507 0.25C10.9221 0.25 14.0001 3.32821 14.0001 7.12536C14.0001 8.68585 13.4803 10.1249 12.6043 11.2788L17.4739 16.1542C17.8398 16.5205 17.8394 17.1141 17.4731 17.48C17.1068 17.8459 16.5132 17.8456 16.1473 17.4792L11.2783 12.6049C10.1245 13.4809 8.68549 14.0007 7.12507 14.0007C3.32807 14.0007 0.25 10.9225 0.25 7.12536C0.25 3.32821 3.32807 0.25 7.12507 0.25ZM7.12507 2.125C4.36363 2.125 2.125 4.36372 2.125 7.12536C2.125 9.88701 4.36363 12.1257 7.12507 12.1257C9.88651 12.1257 12.1251 9.88701 12.1251 7.12536C12.1251 4.36372 9.88651 2.125 7.12507 2.125Z"/>
</svg>
