<svg width="20" height="20" viewBox="0 0 20 20" fill="none" xmlns="http://www.w3.org/2000/svg">
<path fill-rule="evenodd" clip-rule="evenodd" d="M2.5 12.5C2.5 10.7498 2.5 9.87475 2.8406 9.20628C3.14021 8.61827 3.61827 8.14021 4.20628 7.8406C4.57739 7.65152 5.01217 7.5674 5.625 7.52998V5.625C5.625 3.20875 7.58375 1.25 10 1.25C12.0024 1.25 13.6884 2.59452 14.209 4.4282C14.3504 4.92628 14.0613 5.44469 13.5632 5.5861C13.0651 5.72751 12.5467 5.43837 12.4053 4.94029C12.1076 3.89167 11.1421 3.125 10 3.125C8.61929 3.125 7.5 4.24429 7.5 5.625V7.5H12.5C14.2502 7.5 15.1252 7.5 15.7937 7.8406C16.3817 8.14021 16.8598 8.61827 17.1594 9.20628C17.5 9.87475 17.5 10.7498 17.5 12.5V13.75C17.5 15.5002 17.5 16.3752 17.1594 17.0437C16.8598 17.6317 16.3817 18.1098 15.7937 18.4094C15.1252 18.75 14.2502 18.75 12.5 18.75H7.5C5.74984 18.75 4.87475 18.75 4.20628 18.4094C3.61827 18.1098 3.14021 17.6317 2.8406 17.0437C2.5 16.3752 2.5 15.5002 2.5 13.75V12.5ZM12.5 9.375H7.5C6.59398 9.375 6.02723 9.37646 5.60019 9.41135C5.19504 9.44445 5.08337 9.49807 5.05751 9.51124C4.82231 9.63108 4.63108 9.82231 4.51124 10.0575C4.49807 10.0834 4.44445 10.195 4.41135 10.6002C4.37646 11.0272 4.375 11.594 4.375 12.5V13.75C4.375 14.656 4.37646 15.2228 4.41135 15.6498C4.44445 16.055 4.49807 16.1666 4.51124 16.1925C4.63108 16.4277 4.82231 16.6189 5.05751 16.7388C5.08337 16.7519 5.19504 16.8055 5.60019 16.8387C6.02723 16.8735 6.59398 16.875 7.5 16.875H12.5C13.406 16.875 13.9728 16.8735 14.3998 16.8387C14.805 16.8055 14.9166 16.7519 14.9425 16.7388C15.1777 16.6189 15.3689 16.4277 15.4888 16.1925C15.5019 16.1666 15.5555 16.055 15.5887 15.6498C15.6235 15.2228 15.625 14.656 15.625 13.75V12.5C15.625 11.594 15.6235 11.0272 15.5887 10.6002C15.5555 10.195 15.5019 10.0834 15.4888 10.0575C15.3689 9.82231 15.1777 9.63108 14.9425 9.51124C14.9166 9.49807 14.805 9.44445 14.3998 9.41135C13.9728 9.37646 13.406 9.375 12.5 9.375Z" fill="#C1C7D0"/>
</svg>
